# xmcd CD database file
#
# Track frame offsets:
#	183
#	8435
#	25680
#	48160
#	62313
#	84538
#	101655
#	118348
#	137263
#	148245
#	170880
#	184548
#	204705
#	212898
#	227040
#	246100
#
# Disc length: 3544 seconds
#
# Revision: 1
# Processed by: cddbd v1.4PL0 Copyright (c) Steve Scherf et al.
# Submitted via: CDex 1.40Beta8
#
DISCID=d80dd610
DTITLE=The Permanent Cure - Bottled
DYEAR=1993
DGENRE=Folk
TTITLE0=Touch And Go
TTITLE1=One Denomination
TTITLE2=Follow Me Up To Carlow - Cup Of Tea
TTITLE3=June Apple
TTITLE4=Hobo's Delight
TTITLE5=Whiskey In The Jar - The Maid Behind The Bar
TTITLE6=Kitty Lie Over - Morrisons Jig
TTITLE7=The Old Couple
TTITLE8=Twin River Rag
TTITLE9=Nancy Spain
TTITLE10=Ballad Of St. Annes Reel
TTITLE11=Judge Judge
TTITLE12=The Fisherman And His Wife
TTITLE13=I'll Tell Me Ma
TTITLE14=The Day We Went To Norway
TTITLE15=The Wild Rover (Boogie)
EXTD=YEAR: 1993 ID3G: 80
EXTT0=
EXTT1=
EXTT2=
EXTT3=
EXTT4=
EXTT5=
EXTT6=
EXTT7=
EXTT8=
EXTT9=
EXTT10=
EXTT11=
EXTT12=
EXTT13=
EXTT14=
EXTT15=
PLAYORDER=
